<svg id="visual" viewBox="0 0 900 600" width="900" height="600" xmlns="http://www.w3.org/2000/svg" xmlns:xlink="http://www.w3.org/1999/xlink" version="1.1"><rect x="0" y="0" width="900" height="600" fill="#001220"></rect><path d="M434 0L431.3 14.3C428.7 28.7 423.3 57.3 413.8 85.8C404.3 114.3 390.7 142.7 389.8 171.2C389 199.7 401 228.3 424.2 257C447.3 285.7 481.7 314.3 473 343C464.3 371.7 412.7 400.3 398.5 428.8C384.3 457.3 407.7 485.7 424.5 514.2C441.3 542.7 451.7 571.3 456.8 585.7L462 600L0 600L0 585.7C0 571.3 0 542.7 0 514.2C0 485.7 0 457.3 0 428.8C0 400.3 0 371.7 0 343C0 314.3 0 285.7 0 257C0 228.3 0 199.7 0 171.2C0 142.7 0 114.3 0 85.8C0 57.3 0 28.7 0 14.3L0 0Z" fill="#fa7268"></path><path d="M319 0L322 14.3C325 28.7 331 57.3 335 85.8C339 114.3 341 142.7 343.5 171.2C346 199.7 349 228.3 341.7 257C334.3 285.7 316.7 314.3 325.3 343C334 371.7 369 400.3 371.8 428.8C374.7 457.3 345.3 485.7 332 514.2C318.7 542.7 321.3 571.3 322.7 585.7L324 600L0 600L0 585.7C0 571.3 0 542.7 0 514.2C0 485.7 0 457.3 0 428.8C0 400.3 0 371.7 0 343C0 314.3 0 285.7 0 257C0 228.3 0 199.7 0 171.2C0 142.7 0 114.3 0 85.8C0 57.3 0 28.7 0 14.3L0 0Z" fill="#ef5f67"></path><path d="M295 0L283.8 14.3C272.7 28.7 250.3 57.3 244.5 85.8C238.7 114.3 249.3 142.7 259.5 171.2C269.7 199.7 279.3 228.3 272.2 257C265 285.7 241 314.3 241.2 343C241.3 371.7 265.7 400.3 273 428.8C280.3 457.3 270.7 485.7 262.7 514.2C254.7 542.7 248.3 571.3 245.2 585.7L242 600L0 600L0 585.7C0 571.3 0 542.7 0 514.2C0 485.7 0 457.3 0 428.8C0 400.3 0 371.7 0 343C0 314.3 0 285.7 0 257C0 228.3 0 199.7 0 171.2C0 142.7 0 114.3 0 85.8C0 57.3 0 28.7 0 14.3L0 0Z" fill="#e34c67"></path><path d="M176 0L184.3 14.3C192.7 28.7 209.3 57.3 216.7 85.8C224 114.3 222 142.7 220.3 171.2C218.7 199.7 217.3 228.3 205 257C192.7 285.7 169.3 314.3 172.7 343C176 371.7 206 400.3 216 428.8C226 457.3 216 485.7 214.7 514.2C213.3 542.7 220.7 571.3 224.3 585.7L228 600L0 600L0 585.7C0 571.3 0 542.7 0 514.2C0 485.7 0 457.3 0 428.8C0 400.3 0 371.7 0 343C0 314.3 0 285.7 0 257C0 228.3 0 199.7 0 171.2C0 142.7 0 114.3 0 85.8C0 57.3 0 28.7 0 14.3L0 0Z" fill="#d53867"></path><path d="M142 0L127.3 14.3C112.7 28.7 83.3 57.3 79.3 85.8C75.3 114.3 96.7 142.7 103.2 171.2C109.7 199.7 101.3 228.3 93.3 257C85.3 285.7 77.7 314.3 75 343C72.3 371.7 74.7 400.3 83.8 428.8C93 457.3 109 485.7 120.8 514.2C132.7 542.7 140.3 571.3 144.2 585.7L148 600L0 600L0 585.7C0 571.3 0 542.7 0 514.2C0 485.7 0 457.3 0 428.8C0 400.3 0 371.7 0 343C0 314.3 0 285.7 0 257C0 228.3 0 199.7 0 171.2C0 142.7 0 114.3 0 85.8C0 57.3 0 28.7 0 14.3L0 0Z" fill="#c62368"></path></svg>