<svg id="visual" viewBox="0 0 900 600" width="900" height="600" xmlns="http://www.w3.org/2000/svg" xmlns:xlink="http://www.w3.org/1999/xlink" version="1.1"><path d="M398 0L382.2 20C366.3 40 334.7 80 339.8 120C345 160 387 200 403.7 240C420.3 280 411.7 320 387.7 360C363.7 400 324.3 440 314.2 480C304 520 323 560 332.5 580L342 600L0 600L0 580C0 560 0 520 0 480C0 440 0 400 0 360C0 320 0 280 0 240C0 200 0 160 0 120C0 80 0 40 0 20L0 0Z" fill="#fa7268"></path><path d="M313 0L311.8 20C310.7 40 308.3 80 305 120C301.7 160 297.3 200 282.7 240C268 280 243 320 242.5 360C242 400 266 440 275.5 480C285 520 280 560 277.5 580L275 600L0 600L0 580C0 560 0 520 0 480C0 440 0 400 0 360C0 320 0 280 0 240C0 200 0 160 0 120C0 80 0 40 0 20L0 0Z" fill="#eb5967"></path><path d="M247 0L237.3 20C227.7 40 208.3 80 193.8 120C179.3 160 169.7 200 164 240C158.3 280 156.7 320 168.2 360C179.7 400 204.3 440 208.3 480C212.3 520 195.7 560 187.3 580L179 600L0 600L0 580C0 560 0 520 0 480C0 440 0 400 0 360C0 320 0 280 0 240C0 200 0 160 0 120C0 80 0 40 0 20L0 0Z" fill="#da3f67"></path><path d="M124 0L127.3 20C130.7 40 137.3 80 127.7 120C118 160 92 200 92.8 240C93.7 280 121.3 320 124.5 360C127.7 400 106.3 440 104.2 480C102 520 119 560 127.5 580L136 600L0 600L0 580C0 560 0 520 0 480C0 440 0 400 0 360C0 320 0 280 0 240C0 200 0 160 0 120C0 80 0 40 0 20L0 0Z" fill="#c62368"></path></svg>